<?xml version="1.0" encoding="iso-8859-1"?>
<!-- Generator: Adobe Illustrator 16.0.0, SVG Export Plug-In . SVG Version: 6.00 Build 0)  -->
<!DOCTYPE svg PUBLIC "-//W3C//DTD SVG 1.1//EN" "http://www.w3.org/Graphics/SVG/1.1/DTD/svg11.dtd">
<svg version="1.1" id="Capa_1" xmlns="http://www.w3.org/2000/svg" xmlns:xlink="http://www.w3.org/1999/xlink" x="0px" y="0px"
	 width="198.147px" height="198.146px" viewBox="0 0 198.147 198.146" style="enable-background:new 0 0 198.147 198.146;"
	 xml:space="preserve">
<g>
	<g>
		<ellipse cx="128.454" cy="16.564" rx="16.783" ry="16.564"/>
		<path d="M162.835,112.75h-0.9v-5.701c1.166-0.789,1.979-1.957,2.349-3.383c0.539-2.093,12.949-51.483-14.811-67.312
			c-0.794-0.453-2.038-0.789-3.252-0.789c-9.154,0-35.881,0.029-35.881,0.029s0-0.015,0-0.014c-2.1-0.016-4.148,1.078-5.256,3.044
			C99.235,49.021,92.257,55.191,84.337,56.97c-11.071,2.482-20.915-4.375-20.989-4.429c-0.842-0.61-1.788-0.969-2.753-1.09
			c-1.132-2.48-3.65-4.208-6.55-4.208H52.22c0-1.115-0.903-2.019-2.019-2.019H31.314c-1.115,0-2.019,0.903-2.019,2.019v23.721
			c0,2.859,2.319,5.187,5.18,5.187h12.574c2.859,0,5.17-2.327,5.17-5.187v-1.808h1.825c2.958,0,5.521-1.799,6.617-4.363
			c4.109,2.088,10.811,4.688,18.697,4.688c2.384,0,4.861-0.24,7.423-0.801c8.107-1.778,15.322-6.385,21.538-13.74V189.17
			c0,4.955,4.016,8.977,8.975,8.977c4.96,0,8.976-4.021,8.976-8.977v-67.797h4.272v67.797c0,4.955,4.019,8.977,8.978,8.977
			c4.956,0,8.974-4.021,8.974-8.977V50.933c10.567,12.578,6.871,39.309,4.192,49.739c-0.735,2.844,0.701,5.738,3.267,6.928v5.185
			c-3.342,0-5.981,2.69-5.981,6.013v27.856c0,3.321,2.67,6.036,5.99,6.036h6.875c3.319,0,6.016-2.715,6.016-6.036v-27.856
			C168.85,115.475,166.155,112.75,162.835,112.75z M54.045,65.194H52.22V51.208h1.825c1.004,0,1.893,0.475,2.467,1.206
			c-0.573,0.384-1.09,0.874-1.518,1.466c-1.939,2.677-1.34,6.419,1.339,8.356c0.068,0.051,0.332,0.237,0.77,0.522
			C56.769,64.148,55.533,65.194,54.045,65.194z M132.409,46.378c0,1.466-1.188,2.654-2.654,2.654h-2.539
			c-1.467,0-2.655-1.188-2.655-2.654v-2.693c0-1.467,1.188-2.654,2.655-2.654h2.539c1.466,0,2.654,1.188,2.654,2.654V46.378z
			 M132.665,74.415l-3.096,2.694c-0.642,0.558-1.596,0.558-2.236,0l-3.096-2.696c-1.099-0.955-1.61-2.418-1.352-3.849l3.316-18.251
			c0.146-0.809,0.853-1.417,1.676-1.417h1.146c0.822,0,1.526,0.608,1.676,1.417l3.314,18.241
			C134.276,71.986,133.763,73.459,132.665,74.415z"/>
		<path d="M33.386,41.659c0,0.739,0.604,1.341,1.342,1.341c0.74,0,1.341-0.602,1.341-1.341c0-1.677-0.949-2.793-1.786-3.777
			c-0.811-0.954-1.309-1.584-1.309-2.501c0-0.831,0.4-1.309,1.168-2.148c0.859-0.94,1.927-2.11,1.927-4.131
			c0-0.74-0.601-1.34-1.341-1.34c-0.738,0-1.342,0.6-1.342,1.34c0,0.935-0.441,1.465-1.226,2.321
			c-0.831,0.913-1.868,2.049-1.868,3.958c0,1.949,1.08,3.218,1.948,4.239C32.951,40.456,33.386,41.001,33.386,41.659z"/>
		<path d="M39.645,41.659c0,0.739,0.602,1.341,1.342,1.341c0.738,0,1.34-0.602,1.34-1.341c0-1.677-0.948-2.793-1.785-3.777
			c-0.813-0.954-1.31-1.584-1.31-2.501c0-0.831,0.401-1.309,1.169-2.148c0.858-0.94,1.926-2.11,1.926-4.131
			c0-0.74-0.602-1.34-1.34-1.34c-0.74,0-1.342,0.6-1.342,1.34c0,0.935-0.443,1.465-1.226,2.321
			c-0.832,0.913-1.869,2.049-1.869,3.958c0,1.949,1.079,3.218,1.947,4.239C39.21,40.456,39.645,41.001,39.645,41.659z"/>
		<path d="M46.799,41.659C46.799,42.398,47.4,43,48.14,43c0.739,0,1.342-0.602,1.342-1.341c0-1.677-0.949-2.793-1.787-3.777
			c-0.813-0.954-1.309-1.584-1.309-2.501c0-0.831,0.4-1.309,1.167-2.148c0.858-0.94,1.929-2.11,1.929-4.131
			c0-0.74-0.603-1.34-1.342-1.34c-0.74,0-1.341,0.6-1.341,1.34c0,0.935-0.443,1.465-1.227,2.321
			c-0.833,0.913-1.868,2.049-1.868,3.958c0,1.949,1.079,3.218,1.946,4.239C46.362,40.456,46.799,41.001,46.799,41.659z"/>
	</g>
</g>
<g>
</g>
<g>
</g>
<g>
</g>
<g>
</g>
<g>
</g>
<g>
</g>
<g>
</g>
<g>
</g>
<g>
</g>
<g>
</g>
<g>
</g>
<g>
</g>
<g>
</g>
<g>
</g>
<g>
</g>
</svg>
